# xmcd
#
# Track frame offsets:
# 150
# 29529
# 59058
# 95744
# 122128
# 152759
# 184069
# 208642
# 228749
# 261449
# 291767
# 324521
#
# Disc length: 4648 seconds
#
#
# Revision: 2
# Processed by: cddbd v1.5.2PL0 Copyright (c) Steve Scherf et al.
# Submitted via: FreeRIP 2.951 
#
DISCID=bb12260c
DTITLE=Spandau Ballet - Reformation (Anthology) CD3
DYEAR=2002
DGENRE=Pop
TTITLE0=To Cut A Long Story Short (12'' Version)
TTITLE1=The Freeze (12'' Mix # 2)
TTITLE2=Glow (12'' Version)
TTITLE3=Chant No.1 [I Dont Need This Pressure On] (Extended Mix)
TTITLE4=Coffee Club (Remix)
TTITLE5=Instinction (12'' Version)
TTITLE6=Lifeline (12'' Version)
TTITLE7=Communication (12'' Version)
TTITLE8=Gold (12'' Version)
TTITLE9=Only When You Leave (12'' Version)
TTITLE10=I'll Fly For You (12'' Glide Mix)
TTITLE11=Highly Strung (Extended Version)
EXTD=
EXTT0=
EXTT1=
EXTT2=
EXTT3=
EXTT4=
EXTT5=
EXTT6=
EXTT7=
EXTT8=
EXTT9=
EXTT10=
EXTT11=
PLAYORDER=
